# xmcd
#
# Track frame offsets: 
#        150
#        33079
#        53694
#        91620
#        129600
#        165903
#        193399
#        214540
#
# Disc length: 3354 seconds
#
# Revision: 1
# Processed by: cddbd v1.5.1PL2 Copyright (c) Steve Scherf et al.
# Submitted via: ExactAudioCopy v0.95b4
#
DISCID=5d0d1808
DTITLE=Mike Fahn - Close Your Eyes...and Listen
DYEAR=2002
DGENRE=Jazz
TTITLE0=Without Changes
TTITLE1=Will Call
TTITLE2=Survivor's Suite
TTITLE3=Heart Forest
TTITLE4=The Burren
TTITLE5=Get Sparky
TTITLE6=On Time
TTITLE7=Close Your Eyes
EXTD=YEAR: 2002
EXTT0=
EXTT1=
EXTT2=
EXTT3=
EXTT4=
EXTT5=
EXTT6=
EXTT7=
PLAYORDER=
